<mxfile host="app.diagrams.net" modified="2021-01-14T15:44:00.476Z" agent="5.0 (Macintosh; Intel Mac OS X 11_1_0) AppleWebKit/537.36 (KHTML, like Gecko) Chrome/87.0.4280.88 Safari/537.36" etag="pSiO8a3UHJ7OPSn7b7w2" version="14.2.3" type="github">
  <diagram id="jOkBI03tAqd-R45p-Qkx" name="第 1 页">
    <mxGraphModel dx="1298" dy="809" grid="1" gridSize="10" guides="1" tooltips="1" connect="1" arrows="1" fold="1" page="1" pageScale="1" pageWidth="827" pageHeight="1169" math="0" shadow="0">
      <root>
        <mxCell id="0" />
        <mxCell id="1" parent="0" />
        <mxCell id="BLSiVwJjTVKkgNCGwbTs-3" value="" style="edgeStyle=orthogonalEdgeStyle;rounded=0;orthogonalLoop=1;jettySize=auto;html=1;" edge="1" parent="1" source="BLSiVwJjTVKkgNCGwbTs-1" target="BLSiVwJjTVKkgNCGwbTs-2">
          <mxGeometry relative="1" as="geometry" />
        </mxCell>
        <mxCell id="BLSiVwJjTVKkgNCGwbTs-1" value="s f s f" style="rounded=0;whiteSpace=wrap;html=1;" vertex="1" parent="1">
          <mxGeometry x="130" y="220" width="120" height="70" as="geometry" />
        </mxCell>
        <mxCell id="BLSiVwJjTVKkgNCGwbTs-2" value="" style="rounded=0;whiteSpace=wrap;html=1;" vertex="1" parent="1">
          <mxGeometry x="580" y="370" width="120" height="70" as="geometry" />
        </mxCell>
      </root>
    </mxGraphModel>
  </diagram>
</mxfile>
